HIERARCHY
ROOT Hips
{
	OFFSET 0.00000 0.00000 0.00000
	CHANNELS 6 Xposition Yposition Zposition Zrotation Yrotation Xrotation 
	JOINT LHipJoint
	{
		OFFSET 0 0 0
		CHANNELS 3 Zrotation Yrotation Xrotation
		JOINT LeftUpLeg
		{
			OFFSET 1.53794 -1.55850 0.93568
			CHANNELS 3 Zrotation Yrotation Xrotation
			JOINT LeftLeg
			{
				OFFSET 2.28545 -6.27922 0.00000
				CHANNELS 3 Zrotation Yrotation Xrotation
				JOINT LeftFoot
				{
					OFFSET 2.37329 -6.52057 0.00000
					CHANNELS 3 Zrotation Yrotation Xrotation
					JOINT LeftToeBase
					{
						OFFSET 0.14846 -0.40788 2.09160
						CHANNELS 3 Zrotation Yrotation Xrotation
						End Site
						{
							OFFSET 0.00000 -0.00000 1.07536
						}
					}
				}
			}
		}
	}
	JOINT RHipJoint
	{
		OFFSET 0 0 0
		CHANNELS 3 Zrotation Yrotation Xrotation
		JOINT RightUpLeg
		{
			OFFSET -1.78290 -1.55850 0.93568
			CHANNELS 3 Zrotation Yrotation Xrotation
			JOINT RightLeg
			{
				OFFSET -2.24144 -6.15831 0.00000
				CHANNELS 3 Zrotation Yrotation Xrotation
				JOINT RightFoot
				{
					OFFSET -2.35091 -6.45907 0.00000
					CHANNELS 3 Zrotation Yrotation Xrotation
					JOINT RightToeBase
					{
						OFFSET -0.14428 -0.39641 2.07944
						CHANNELS 3 Zrotation Yrotation Xrotation
						End Site
						{
							OFFSET -0.00000 -0.00000 1.06864
						}
					}
				}
			}
		}
	}
	JOINT LowerBack
	{
		OFFSET 0 0 0
		CHANNELS 3 Zrotation Yrotation Xrotation
		JOINT Spine
		{
			OFFSET -0.08841 2.11430 -0.15818
			CHANNELS 3 Zrotation Yrotation Xrotation
			JOINT Spine1
			{
				OFFSET -0.00033 2.12605 -0.08097
				CHANNELS 3 Zrotation Yrotation Xrotation
				JOINT Neck
				{
					OFFSET 0 0 0
					CHANNELS 3 Zrotation Yrotation Xrotation
					JOINT Neck1
					{
						OFFSET 0.04431 1.59447 0.43193
						CHANNELS 3 Zrotation Yrotation Xrotation
						JOINT Head
						{
							OFFSET 0.00455 1.62017 -0.58852
							CHANNELS 3 Zrotation Yrotation Xrotation
							End Site
							{
								OFFSET -0.00920 1.72955 -0.25850
							}
						}
					}
				}
				JOINT LeftShoulder
				{
					OFFSET 0 0 0
					CHANNELS 3 Zrotation Yrotation Xrotation
					JOINT LeftArm
					{
						OFFSET 2.86490 1.49927 -0.33774
						CHANNELS 3 Zrotation Yrotation Xrotation
						JOINT LeftForeArm
						{
							OFFSET 4.87408 -0.00000 0.00000
							CHANNELS 3 Zrotation Yrotation Xrotation
							JOINT LeftHand
							{
								OFFSET 2.76729 -0.00000 0.00000
								CHANNELS 3 Zrotation Yrotation Xrotation
								JOINT LeftFingerBase
								{
									OFFSET 0 0 0
									CHANNELS 3 Zrotation Yrotation Xrotation
									JOINT LeftHandIndex1
									{
										OFFSET 0.98922 -0.00000 0.00000
										CHANNELS 3 Zrotation Yrotation Xrotation
										End Site
										{
											OFFSET 0.79753 -0.00000 0.00000
										}
									}
								}
								JOINT LThumb
								{
									OFFSET 0 0 0
									CHANNELS 3 Zrotation Yrotation Xrotation
									End Site
									{
										OFFSET 0.80972 -0.00000 0.80972
									}
								}
							}
						}
					}
				}
				JOINT RightShoulder
				{
					OFFSET 0 0 0
					CHANNELS 3 Zrotation Yrotation Xrotation
					JOINT RightArm
					{
						OFFSET -2.94414 1.45463 -0.25291
						CHANNELS 3 Zrotation Yrotation Xrotation
						JOINT RightForeArm
						{
							OFFSET -4.71404 -0.00000 0.00000
							CHANNELS 3 Zrotation Yrotation Xrotation
							JOINT RightHand
							{
								OFFSET -2.83468 -0.00000 0.00000
								CHANNELS 3 Zrotation Yrotation Xrotation
								JOINT RightFingerBase
								{
									OFFSET 0 0 0
									CHANNELS 3 Zrotation Yrotation Xrotation
									JOINT RightHandIndex1
									{
										OFFSET -0.86820 -0.00000 0.00000
										CHANNELS 3 Zrotation Yrotation Xrotation
										End Site
										{
											OFFSET -0.69996 -0.00000 0.00000
										}
									}
								}
								JOINT RThumb
								{
									OFFSET 0 0 0
									CHANNELS 3 Zrotation Yrotation Xrotation
									End Site
									{
										OFFSET -0.71065 -0.00000 0.71065
									}
								}
							}
						}
					}
				}
			}
		}
	}
}
MOTION
Frames: 15
Frame Time: 0.05
0.00 0.00 0.00 0 0 0 0 0 0 -21 0 0 0 0 0 0 0 0 0 0 0 0 0 0 21 0 0 0 0 0 0 0 0 0 0 0 0 0 0 0 0 0 0 0 0 0 0 -16 0 0 21 0 0 11 0 0 0 -8 0 0 0 0 0 0 0 0 0 0 0 0 0 0 0 0 0 0 0 0 8 0 0 0 0 0 0 0 0 0 0 0 0 0 0 0 0 0
0.00 0.00 0.00 179.6620 1.8413 -172.9760 0.0000 0.0000 0.0000 -13.0770 -16.6718 -36.6508 2.2923 9.4500 27.2135 1.6580 13.9871 23.6497 0.3128 -3.5954 -9.9410 0.0000 0.0000 0.0000 21.4434 -3.7653 10.1186 -5.9450 -14.3749 44.7607 -0.3281 -24.3569 19.3335 -0.8450 5.8632 -16.3880 -3.0988 6.5572 -6.0520 -1.9004 9.0768 -0.0872 0.5214 4.5075 3.1068 -4.1342 -4.3927 -37.0289 3.5825 -9.4883 42.2267 -0.5969 -4.1091 27.4101 0.0000 0.0000 0.0000 -54.9392 40.8180 62.2946 117.7308 -56.8849 -83.7644 -0.0000 -0.0000 18.0286 15.1421 2.4757 0.6697 -7.1250 0.0000 -0.0000 -9.2351 32.4501 2.8702 0.0000 0.0000 0.0000 82.6356 -5.1498 58.0602 -97.7656 59.7709 -66.7200 0.0000 0.0000 5.7574 -9.0540 -0.4008 0.0639 7.1250 -0.0000 -0.0000 13.7580 -30.2239 5.0946
0.00 0.00 0.00 179.3190 0.8285 -176.5330 0.0000 0.0000 0.0000 -17.8948 -13.0783 -33.9742 4.7871 13.1400 39.8949 -0.2837 14.9178 6.9306 0.1708 -2.6625 -7.3406 0.0000 0.0000 0.0000 19.7365 -4.5174 6.1239 -11.5414 -18.1900 64.5275 0.0322 -22.7609 15.8095 -1.1415 6.7848 -19.0792 -3.1589 5.2837 -4.3543 -1.2111 7.2800 0.5450 0.9776 3.5997 2.7572 -4.2053 -3.3341 -35.5823 3.6949 -8.1617 42.6876 -0.0757 -3.8439 27.2187 -0.0000 -0.0000 0.0000 -61.8069 40.4593 57.2404 114.7376 -57.5565 -81.2476 -0.0000 -0.0000 18.6084 16.1039 2.6078 0.7526 -7.1250 0.0000 -0.0000 -8.4793 32.6133 2.5968 -0.0000 -0.0000 0.0000 83.0748 -12.5166 52.8004 -88.4417 59.9908 -58.6505 0.0000 0.0000 7.9366 -11.0249 -2.1328 0.4154 7.1250 -0.0000 -0.0000 12.4640 -31.9857 4.0534
0.00 0.00 0.00 176.3880 0.4550 -179.3510 0.0000 0.0000 0.0000 -22.8962 -13.9771 -29.6782 7.0603 15.3825 49.1022 -1.4452 21.2063 -3.0520 0.0486 -1.4232 -3.9140 0.0000 0.0000 0.0000 14.9383 -3.5695 -0.8054 -17.4633 -19.8450 82.5649 0.6318 -22.5026 10.7295 -1.0141 6.4071 -17.9702 -5.5980 4.1858 -2.2730 -1.7955 5.9193 1.3921 1.5019 2.9162 2.3392 -3.4919 -2.3637 -33.9456 4.0044 -7.2688 42.3128 0.2988 -3.4729 25.9398 0.0000 -0.0000 0.0000 -69.1778 36.0001 51.8995 106.5116 -58.9444 -74.2487 -0.0000 -0.0000 18.9889 17.0083 2.9443 0.9002 -7.1250 0.0000 -0.0000 -7.7877 32.9878 2.3104 0.0000 -0.0000 0.0000 84.6660 -18.3390 44.7257 -74.9182 59.1228 -46.9773 0.0000 0.0000 10.9458 -13.4151 -3.8015 0.9060 7.1250 -0.0000 -0.0000 10.7928 -33.7384 3.0264
0.00 0.00 0.00 172.2210 3.5763 -181.8980 0.0000 0.0000 0.0000 -29.0105 -8.9652 -23.0283 8.5900 16.5365 54.6610 -2.3507 26.0161 -12.6842 0.1718 -2.6699 -7.3611 0.0000 0.0000 0.0000 9.3820 4.8541 -18.1970 -24.7124 -19.4590 103.8984 1.2213 -20.3027 -0.2474 -0.9655 6.2562 -17.5297 -9.1269 3.3011 -0.2112 -2.8816 4.8577 2.0448 2.1717 2.4153 1.7638 -2.5060 -0.6632 -33.2757 4.1235 -5.3379 42.3389 0.7772 -2.7243 25.4505 -0.0000 0.0000 0.0000 -79.1821 25.6020 44.4748 90.6620 -59.9983 -60.5733 -0.0000 -0.0000 21.7157 17.3015 5.0854 1.5816 -7.1250 0.0000 -0.0000 -7.7921 35.2177 1.8867 -0.0000 0.0000 0.0000 85.0558 -24.3525 30.0535 -49.7461 52.8926 -25.9715 0.0000 0.0000 11.8169 -14.4993 -9.2349 2.3765 7.1250 -0.0000 -0.0000 10.7982 -39.2916 1.5399
0.00 0.00 0.00 172.4860 0.2380 -185.4690 0.0000 0.0000 0.0000 -30.9705 -3.1033 -4.8472 8.1904 16.2575 53.2455 -2.5591 27.2595 -15.4118 0.8142 -5.7579 -16.0837 0.0000 0.0000 0.0000 8.1877 12.9405 -44.2594 -20.8122 -19.9842 92.3752 1.1407 -19.0490 -12.1055 -1.4454 7.6002 -21.5060 -8.5115 -1.7252 1.9552 -2.4692 -2.0615 2.7323 2.2088 -1.0531 1.9657 3.8284 -0.2042 -30.9390 -1.3567 1.9015 42.9939 -0.4227 2.3301 24.7333 -0.0000 -0.0000 0.0000 -81.1243 14.2578 43.5104 95.1965 -59.8977 -64.4987 -0.0000 -0.0000 20.8670 17.6317 4.0327 1.2804 -7.1250 0.0000 -0.0000 -7.3987 34.1390 1.9855 -0.0000 -0.0000 0.0000 77.0441 -34.0548 10.4474 -32.5907 43.0131 -13.1421 0.0000 0.0000 12.0402 -14.5114 -9.7932 2.5208 7.1250 -0.0000 -0.0000 10.8983 -39.8571 1.4007
0.00 0.00 0.00 172.1080 -1.4467 -185.3690 0.0000 0.0000 0.0000 -30.8728 -1.2234 2.3388 6.7884 15.1510 48.0692 -2.0585 24.4370 -11.0640 0.9440 -6.1880 -17.3308 0.0000 0.0000 0.0000 6.6294 14.2207 -46.7218 -14.2877 -19.1990 73.0813 1.5837 -21.6217 -9.2739 -1.3002 7.2240 -20.3807 -9.1948 -3.1022 0.2165 -2.1544 -4.2040 2.4654 2.7720 -2.3701 2.9334 4.6922 0.5569 -30.2099 -2.5552 3.6965 43.6436 -0.7208 3.0400 25.3298 0.0000 -0.0000 0.0000 -77.6849 11.6783 45.6022 95.3608 -59.8911 -64.6409 -0.0000 -0.0000 22.2869 16.3935 2.0007 0.5885 -7.1250 0.0000 -0.0000 -8.1839 31.9956 2.6278 0.0000 -0.0000 0.0000 73.8445 -36.7680 6.4878 -29.2428 40.2355 -10.9172 0.0000 0.0000 11.1403 -12.6865 -10.5427 2.3586 7.1250 -0.0000 -0.0000 12.6269 -40.4572 1.4405
0.00 0.00 0.00 171.7730 -2.6014 -184.6640 0.0000 0.0000 0.0000 -30.5717 -0.2136 6.7064 5.7885 14.2202 44.1270 -1.5628 21.5349 -6.4175 0.8848 -5.9961 -16.7730 0.0000 0.0000 0.0000 5.1087 15.0261 -45.8371 -8.8756 -16.7270 55.6589 1.7694 -24.1583 -0.3990 -1.1716 6.8704 -19.3321 -9.4548 -4.1125 -1.4970 -1.9477 -5.3300 1.9235 2.9614 -2.9192 3.5150 4.9191 0.7482 -29.6573 -3.0884 4.5546 44.1795 -0.7916 3.4022 25.8151 0.0000 -0.0000 0.0000 -75.2552 9.7699 46.9479 93.2550 -59.9599 -62.8185 -0.0000 -0.0000 23.0745 14.6797 0.2835 0.0743 -7.1250 0.0000 -0.0000 -9.3666 30.2019 3.4243 0.0000 -0.0000 0.0000 72.2670 -38.5629 4.0684 -26.9451 38.1268 -9.4652 0.0000 0.0000 11.3655 -10.5988 -10.6924 1.9884 7.1250 -0.0000 -0.0000 14.4528 -40.4269 1.6694
0.00 0.00 0.00 171.9040 -4.3971 -183.6820 0.0000 0.0000 0.0000 -28.9294 1.3050 10.9194 4.9270 13.3011 40.5062 -0.8674 17.6421 0.8801 0.6889 -5.3061 -14.7836 0.0000 0.0000 0.0000 3.2278 16.5907 -41.8925 -3.9185 -12.0511 35.9130 0.2212 -23.3853 14.8838 -1.9882 8.8415 -25.3009 -9.2957 -5.0260 -4.0100 -1.5417 -6.2516 1.2909 3.0257 -3.3621 4.4164 4.8218 0.6706 -29.4832 -3.5288 4.8918 44.4088 -0.9173 3.4966 26.0749 -0.0000 -0.0000 0.0000 -73.3115 7.3395 48.0894 88.0967 -59.9863 -58.3518 -0.0000 -0.0000 23.5328 11.5856 -1.1430 -0.2343 -7.1250 0.0000 -0.0000 -11.6149 28.7289 4.6906 -0.0000 -0.0000 0.0000 71.7276 -40.4417 1.4408 -23.8540 35.0095 -7.6226 0.0000 0.0000 13.5754 -8.9909 -8.7630 1.3808 7.1250 -0.0000 -0.0000 15.3493 -38.4125 2.5622
0.00 0.00 0.00 170.8650 -8.8346 -183.2900 0.0000 0.0000 0.0000 -25.2845 3.2579 13.3544 6.2408 14.6577 45.9406 0.9167 12.0234 17.8685 0.0229 -0.9762 -2.6833 0.0000 0.0000 0.0000 3.4803 12.8444 -38.5842 -3.6740 -11.7134 34.7256 -0.4379 -15.7434 15.2126 -1.9515 8.7643 -25.0606 -11.1369 -5.7264 -6.5606 -1.6988 -6.8071 0.5128 3.5764 -3.6929 5.3036 3.5197 -0.2202 -33.4865 -2.9567 3.8109 45.3185 -0.5892 2.9699 29.1312 -0.0000 0.0000 0.0000 -72.8540 5.5786 48.8256 78.1758 -59.4651 -49.7784 -0.0000 -0.0000 23.6768 8.9057 1.1442 0.1793 -7.1250 0.0000 -0.0000 -13.9810 30.9511 4.9305 -0.0000 0.0000 0.0000 75.8391 -40.0387 -3.0444 -18.8799 29.2692 -4.9720 0.0000 0.0000 20.4458 -6.1300 -5.2949 0.5678 7.1250 -0.0000 -0.0000 16.9188 -34.8781 4.3647
0.00 0.00 0.00 174.3340 -10.5665 -185.7250 0.0000 0.0000 0.0000 -18.8625 1.8545 8.1595 11.6279 18.2289 64.8044 1.2088 10.9511 19.9658 0.0157 0.8097 2.2254 0.0000 0.0000 0.0000 11.1821 9.4215 -36.9099 -6.9905 -15.3238 48.8382 0.6633 -14.3435 -3.5671 -0.5291 4.6612 -12.9447 -9.6109 -4.9237 -4.1149 -0.6015 -6.0928 0.6598 4.2187 -3.2437 3.9333 2.6643 -1.0347 -33.7047 -2.5883 2.2932 44.5824 -0.7309 2.2656 27.9399 -0.0000 0.0000 0.0000 -76.6181 3.2748 47.0896 63.0707 -57.0742 -36.9076 -0.0000 -0.0000 27.0765 11.1964 5.0629 1.0007 -7.1250 0.0000 -0.0000 -12.7868 34.9048 3.2370 -0.0000 0.0000 0.0000 80.9964 -30.5733 -8.5112 -15.5043 24.8439 -3.4350 0.0000 0.0000 29.9865 -5.5676 -5.1099 0.4974 7.1250 -0.0000 -0.0000 17.3289 -34.6714 4.5701
0.00 0.00 0.00 175.0230 -11.0854 -186.0770 0.0000 0.0000 0.0000 -18.8794 -2.1778 -5.0106 18.3815 19.9371 85.2631 -0.2413 18.0252 10.3163 0.0000 0.0039 0.0106 0.0000 0.0000 0.0000 13.8244 7.8018 -36.3842 -9.3755 -17.0434 57.3799 0.4306 -13.4177 -12.2760 -0.6228 5.0502 -14.0518 -9.3111 -4.0070 -3.0404 -0.4778 -4.9737 1.3382 4.3497 -2.7052 3.8574 1.7376 -1.6633 -33.6257 -2.0097 0.9196 43.3050 -0.6994 1.5337 26.1592 0.0000 0.0000 0.0000 -80.3621 3.1247 41.6037 49.2830 -52.7022 -25.6026 -0.0000 -0.0000 31.3994 9.1713 5.9363 0.9566 -7.1250 0.0000 -0.0000 -14.5945 35.6622 3.4410 0.0000 0.0000 0.0000 85.5339 -20.0060 0.2799 -18.9614 29.3707 -5.0119 0.0000 0.0000 24.6407 -5.8240 -6.7170 0.6835 7.1250 -0.0000 -0.0000 17.4801 -36.2260 3.9203
0.00 0.00 0.00 178.2150 -7.2735 -188.1640 0.0000 0.0000 0.0000 -18.2762 -8.7157 -27.5423 19.3494 19.9898 88.0973 -1.6940 22.3457 -6.9254 0.2362 -3.1276 -8.6341 0.0000 0.0000 0.0000 22.5257 6.3605 -22.7434 -8.6245 -16.5599 54.7822 0.0251 -14.2955 -20.0257 -0.8228 5.7876 -16.1693 -3.1932 -0.1727 0.3781 -0.1910 -0.2601 2.4337 1.5876 -0.2199 2.2990 -0.8925 0.1676 -32.4478 0.4487 -2.7783 42.2060 -0.8753 -2.0711 24.5008 -0.0000 -0.0000 0.0000 -86.5358 2.6009 9.8208 12.8390 -21.0508 -2.3951 -0.0000 -0.0000 45.3092 4.4452 7.2730 0.5639 -7.1250 0.0000 -0.0000 -18.7299 36.6701 4.0119 -0.0000 -0.0000 0.0000 86.6727 -4.6547 29.4003 -47.4049 51.8937 -24.1166 0.0000 0.0000 16.1741 -11.2241 -4.8535 0.9619 7.1250 -0.0000 -0.0000 12.7287 -34.6981 3.2872
0.00 0.00 0.00 177.4900 -6.2472 -187.5460 0.0000 0.0000 0.0000 -19.5060 -11.0812 -27.8272 16.6189 19.7237 80.0704 -2.1754 25.0236 -9.3981 0.2847 -3.4315 -9.4825 0.0000 0.0000 0.0000 22.3725 6.1125 -20.3493 -8.1776 -16.2484 53.2000 -0.0520 -13.9014 -20.3365 -0.9357 6.1617 -17.2543 -3.0499 0.4122 0.2730 -0.5810 0.5267 2.2899 1.1197 0.1831 2.1738 -0.7195 0.2152 -32.7394 0.4591 -2.7035 42.0835 -0.8665 -1.9785 24.4923 0.0000 0.0000 0.0000 -87.1695 2.2333 -23.8076 7.5701 -12.8537 -0.8539 -0.0000 -0.0000 70.6356 3.8352 9.7419 0.6499 -7.1250 0.0000 -0.0000 -19.8859 38.9608 3.1042 0.0000 0.0000 0.0000 86.7057 -3.1790 31.6101 -53.0297 54.1467 -28.6121 0.0000 0.0000 15.8603 -10.7443 -6.9473 1.3148 7.1250 -0.0000 -0.0000 13.5037 -36.7472 2.8041
0.00 0.00 0.00 177.1290 -5.2943 -186.8300 0.0000 0.0000 0.0000 -20.2585 -12.6126 -26.7994 14.3267 19.2101 73.1996 -2.4429 26.3769 -10.6143 0.2748 -3.3716 -9.3151 0.0000 0.0000 0.0000 22.3161 6.3385 -18.6644 -7.7980 -15.9686 51.8317 -0.0759 -13.6380 -20.2441 -1.0500 6.5159 -18.2890 -2.8512 0.7904 -0.1218 -0.7528 1.0501 2.0917 0.8445 0.4548 2.1764 -0.2965 0.3854 -33.1366 0.1501 -2.3900 41.8932 -1.0138 -1.7984 24.4403 0.0000 0.0000 0.0000 -86.6777 2.6169 -62.2406 6.1727 -10.5499 -0.5705 -0.0000 -0.0000 104.7320 2.9879 10.9909 0.5701 -7.1250 0.0000 -0.0000 -20.9593 40.0624 2.6880 0.0000 0.0000 0.0000 86.5557 -3.1820 32.6621 -56.4631 55.2913 -31.4154 0.0000 0.0000 16.5766 -9.8985 -6.9881 1.2162 7.1250 -0.0000 -0.0000 14.2095 -36.7360 2.9620
